# xmcd
#
# Track frame offsets:
#	150
#	10922
#	24143
#	35691
#	48021
#	60835
#	73619
#	83126
#	95009
#	105411
#	118834
#	130163
#	141885
#	153100
#	163694
#
# Disc length: 2426 seconds
#
# Revision: 1
# Processed by: cddbd v1.5.2PL0 Copyright (c) Steve Scherf et al.
# Submitted via: audiograbber 1.83.01
#
DISCID=b409780f
DTITLE=Various Artist - Golden Age of Country: Hard to Find Hits [Disc 2]
DYEAR=2009
DGENRE=Country
TTITLE0=Cowboy Copas - Alabam
TTITLE1=Bobby Helms - Fraulein
TTITLE2=Marvin Rainwater - Gonna Find Me a Bluebird
TTITLE3=Wynn Stewart - Wishful Thinking
TTITLE4=Johnny Tillotson: It Keeps Right on A - Hurtin'
TTITLE5=Ernest Ashworth - Talk Back Trembling Lips
TTITLE6=Bob Luman - Let's Think About Living
TTITLE7=Roy Drusky and Priscilla Mitchell - Yes, Mr. Peters
TTITLE8=Jimmy Newman - A Fallen Star
TTITLE9=Jimmie Skinner - I Found My Girl in the U.S.A.
TTITLE10=The Carlisles - No Help Wanted
TTITLE11=Bill Phillips - Put It Off Until Tomorrow
TTITLE12=Sheb Wooley - That's My Pa
TTITLE13=Wilma Lee and Stoney Cooper - There's a Big Wheel
TTITLE14=Red Sovine - Giddyup Go
EXTD=
EXTT0=
EXTT1=
EXTT2=
EXTT3=
EXTT4=
EXTT5=
EXTT6=
EXTT7=
EXTT8=
EXTT9=
EXTT10=
EXTT11=
EXTT12=
EXTT13=
EXTT14=
PLAYORDER=
